<svg xmlns="http://www.w3.org/2000/svg" viewBox="-139.6 773 1262.6 268"><path fill="#bf944f" d="M130.147 807h.75c.367 24.776.367 24.776-6.86 32.514-2.702 2.512-6.102 3.92-9.41 5.445-3.137 1.453-5.196 2.739-7.326 5.486q-1.017 1.313-2.037 2.622l-.538.694a39 39 0 0 1-3.845 4.243c-1.182 1.157-2.246 2.418-3.318 3.677a39 39 0 0 0 3.03-.863l.882-.286.934-.302c2.089-.676 4.135-1.276 6.296-1.685 1.928-.409 3.45-1.13 5.15-2.084 5.641-3.15 11.426-4.002 17.72-2.335 3.025 1.113 5.712 2.887 8.31 4.77 3.014 2.169 6.436 3.996 10.112 4.658-1.143.933-2.268 1.505-3.63 2.069l-1.26.527-1.313.54-3.812 1.588a130 130 0 0 0-4.408 1.99c-4.486 1.934-9.512 2.283-14.158.777-3.437-1.386-6.105-3.504-8.64-6.165-2.123-2.017-4.542-2.594-7.387-2.552-11.391 1.076-22.427 11.826-29.428 20.169-5.432 6.653-9.477 13.813-13.23 21.506.196-.235.392-.47.593-.714 3.983-4.631 8.883-7.73 14.787-9.281 2.442-.685 4.516-1.87 6.718-3.113 5.544-3.097 10.608-4.742 17.002-3.498 4.524 1.37 8.091 4.016 11.462 7.243 3.226 3.012 6.828 5.672 10.862 7.49v.375l-.626.119a66 66 0 0 0-14.085 4.38c-1.44.626-2.872 1.086-4.39 1.494l-.935.414c-3.658 1.307-8.469.303-11.932-1.162-3.384-1.73-6.235-4.316-8.647-7.22-1.334-1.478-2.92-2.424-4.929-2.608-4.999-.123-8.922 2.316-12.508 5.707-1.237 1.55-2.306 3.198-3.371 4.869l-.566.873c-4.342 7.602-4.124 17.674-1.948 25.875 1.07 3.662 2.525 7.196 4.012 10.705 1.513-5.992 1.513-5.992.935-8.215-.778-3.238-.718-7.963.938-10.886 1.744-2.742 3.872-4.527 6.6-6.233 2.244-1.448 3.242-2.38 3.886-5.003l1.124.374c.506 1.05.506 1.05.983 2.364l.483 1.307c1.152 3.395 1.46 7.698.196 11.123-.432.87-.432.87-.913 1.686l-.446.816c-1.443 2.21-3.377 3.366-5.57 4.731-2.84 1.8-4.817 3.375-5.594 6.812-.565 5.033.809 9.01 2.809 13.554l.607 1.394q.614 1.407 1.235 2.813.807 1.829 1.603 3.66c3.856 8.767 8.43 16.787 17.588 20.794 2.97 1.143 5.955 1.716 9.116 1.98v1.123H48.125v-1.123l1.098-.18c2.752-.483 5.11-1.05 7.57-2.447.695-.37.695-.37 1.444-.37l.305-.608c.32-.642.664-1.272 1.022-1.894 1.358-3.093.82-6.846-.273-9.95q-.512-1.271-1.053-2.529l-.476-1.18a121 121 0 0 0-2.333-5.35 66 66 0 0 1-1.873-4.542c-.562-1.491-1.163-2.915-1.896-4.33-.814-1.572-1.426-3.162-2.008-4.832a66 66 0 0 0-1.227-3.113q-.827-1.964-1.644-3.933a409 409 0 0 0-1.622-3.858q-.335-.792-.663-1.59c-1.32-3.206-2.596-5.868-5.36-8.096l-1.09-.937c-4.538-3.446-9.224-5.397-14.64-6.928l-1.185-.423c-2.096-.476-4.14-.404-6.282-.373l-1.317.01q-1.6.015-3.2.037c1.019-1.047 1.895-1.803 3.206-2.457l.868-.447c5.548-2.215 12.97-2.901 18.631-.677.942.407 1.85.863 2.762 1.334l1.645.794c3.11 1.54 5.872 3.248 8.468 5.573q.448.384.913.778c5.105 4.435 8.872 9.448 12.195 15.327-1.893-4.432-4.095-8.23-7.116-11.985l-.744-.954c-3.206-3.87-8.612-8.432-13.483-9.861-2.162-.727-3.562-1.382-4.678-3.386-.916-1.904-1.64-3.88-2.373-5.86q-.43-1.1-.865-2.197a584 584 0 0 1-1.747-4.469c-1.047-2.69-2.19-5.334-3.353-7.975a855 855 0 0 1-1.815-4.17l-.384-.886c-1.918-4.428-3.804-8.869-5.693-13.309l-.541-1.27q-1.301-3.054-2.599-6.11a1790 1790 0 0 0-1.931-4.535l-1.441-3.377-.547-1.273-.497-1.17-.443-1.034c-.311-.823-.311-.823-.311-1.572h-.75l-.14.824c-.23 1.032-.553 1.883-.988 2.845l-.476 1.066-.526 1.164-1.145 2.576-.304.684a483 483 0 0 0-3.256 7.578l-1.327 3.136-.36.854a5750 5750 0 0 1-4.978 11.716l-1.693 3.982a929 929 0 0 1-5.152 11.941 478 478 0 0 1-1.582 3.558l-.531 1.202-.452 1.007c-.34 1.008-.436 1.74-.31 2.796.88.775.88.775 2.106 1.544q.678.442 1.352.888l.71.466c4.21 2.838 7.93 6.306 11.562 9.836l.85.825c3.281 3.2 6.496 6.375 9.262 10.036l1.093 1.41c2.337 3.039 4.477 6.128 6.398 9.451l.441.74c3.864 6.476 7.194 13.483 7.166 21.147l.019.996c.003 3.904-1.14 7.33-3.506 10.45-1.871 1.837-3.98 2.511-6.578 2.739-1.441-.13-2.314-.474-3.535-1.24-.749-1.124-.749-1.124-.749-2.248l.904-.071c3.648-.422 3.648-.422 4.925-1.848 2.708-3.839 2.925-8.937 2.305-13.464-2.245-12.826-10.514-24.147-19.37-33.305-.133-.14-.133-.14-.808-.84-3.455-3.57-6.915-6.983-10.92-9.93-.92-.68-1.822-1.38-2.725-2.08q-1.386-1.07-2.775-2.132c-.8.8-1.01 1.297-1.404 2.341-1.147 2.956-2.425 5.856-3.681 8.766a244 244 0 0 0-2.806 6.761c-.576 1.42-1.213 2.812-1.847 4.206-.832 1.846-1.632 3.68-2.294 5.595-.637 1.842-1.495 3.524-2.387 5.255-.565 1.164-1.027 2.332-1.475 3.546a42 42 0 0 1-2.158 4.845c-1.436 2.815-2.651 5.708-3.841 8.634q-.526 1.29-1.057 2.578l-.994 2.425c-.98 2.414-1.246 4.358-1.29 6.94l-.042.931c-.034 2.371.572 3.87 2.055 5.716 2.687 2.617 6.189 3.052 9.738 3.746v1.123l-.752.007q-3.9.037-7.802.091-1.453.02-2.905.032-2.098.02-4.195.053l-1.295.007c-7.659.138-13.203 3.566-19.26 7.875-7.104 5.046-14.7 9.509-23.716 8.415-3.312-.605-5.807-1.796-8.24-4.12l-.652-.62c-2.362-2.492-3.6-6.02-3.55-9.436.227-2.227 1.178-4.052 2.704-5.675 1.384-.922 2.11-.895 3.746-.749.726.492.726.492 1.123 1.124v1.124l-1.24.304c-1.776.572-1.776.572-2.505 1.568-.507 3.002.17 5.565 1.498 8.24l.383.83c.485.884.949 1.01 1.864 1.417l1.077.75c3.658 2.34 9.055 1.99 13.202 1.17 5.305-1.604 10.045-5.074 14.186-8.662l.642-.553c2.498-2.174 4.748-4.422 6.793-7.038a46 46 0 0 1 1.632-1.964c4.67-5.313 8.558-11.494 11.86-17.742.463-.87.937-1.735 1.411-2.599 4.853-8.962 8.855-18.443 12.703-27.875a52 52 0 0 1 1.85-4.003c.92-1.798 1.634-3.648 2.344-5.539.571-1.505 1.19-2.988 1.815-4.472q.607-1.45 1.197-2.906l.354-.87q.346-.852.69-1.705c.477-1.17.949-2.202 1.652-3.257l-.833-.318a23 23 0 0 1-2.69-1.34l-.93-.527-.978-.554c-2.532-1.417-5-2.67-7.743-3.628a35 35 0 0 1-2.296-.916c-8.1-3.513-17.013-4.874-25.775-4.89l-.877-.005c-4.064-.01-7.84.433-11.81 1.316l-1.308.288c-2.022.459-3.865 1.056-5.734 1.952-.861.4-1.733.715-2.626 1.037-7.864 3.149-13.638 10.1-16.924 17.697-2.632 6.92-1.995 14.737.959 21.429 2.239 4.326 5.725 7.261 10.277 8.908 2.812.704 5.782.503 8.614 0v.749c-2.872 1.915-6.406 1.77-9.737 1.498-5.88-1.23-10.376-4.879-13.84-9.64-1.206-1.92-1.965-3.934-2.64-6.09l-.413-1.141c-1.56-5.601-.792-12.694 1.537-17.96l.48-1.174c3.909-8.704 11.678-14.45 20.119-18.302l.961-.452c2.019-.881 4.127-1.453 6.249-2.03q.418-.114.85-.234c5.11-1.331 10.126-1.543 15.371-1.52l1.004.001c4.913.018 9.704.164 14.516 1.239l.872.189c8.52 1.898 17.441 5.13 24.834 9.798.886.5.886.5 2.01.5q4.406-10.144 8.758-20.311l2.634-6.149 1.419-3.31q1.83-4.275 3.67-8.547a1928 1928 0 0 0 3.513-8.204q.57-1.34 1.146-2.675.674-1.57 1.331-3.145l.378-.864c.75-1.832.804-2.969.371-4.847l-2.996-.75v-1.123c.674-.581.674-.581 1.615-1.24 5.97-4.63 9.233-11.875 12.242-18.61h.75c2.44 5.65 4.848 11.311 7.21 16.994q2.954 7.112 5.945 14.209l.752 1.784 1.11 2.636a6687 6687 0 0 1 3.488 8.29l.618 1.47c.9 2.14 1.796 4.28 2.652 6.438.63 1.588 1.31 3.15 2.007 4.71.758 1.706 1.472 3.406 2.083 5.173.637 1.818 1.475 3.48 2.356 5.192 1.097 2.254 2.007 4.587 2.944 6.912.355.87.725 1.732 1.097 2.595.734 1.712 1.452 3.432 2.171 5.15.16.383.322.766.488 1.16a134 134 0 0 1 2.576 6.652 37 37 0 0 0 1.337 3.12c.54 1.134.954 2.174 1.24 3.394l.01-.758c.091-5.175.348-10.01 1.863-14.972l.241-.825c1.153-3.9 2.68-7.45 4.56-11.048 2.58-5.017 5.04-10.103 6.81-15.467q.146-.433.3-.878c.86-3.044 1.065-7.162.16-10.205-1.07-1.85-2.817-3.254-4.342-4.727-1.7-1.798-3.025-3.832-4.358-5.913l-.606-.909c-2.89-5.38-2.32-11.73-1.175-17.49.264-1.357.474-2.703.657-4.073h.75q.03-2.235.046-4.471l.02-1.268c.013-2.445-.158-4.64-.816-6.995l-.374-1.498c3.793 1.77 6.888 4.786 9.877 7.655q.6.577 1.209 1.147c4.116 3.864 7.246 8.071 9.513 13.295l.386.877c1.996 5.407.872 12.053-1.448 17.177-.865 1.806-1.765 3.59-2.865 5.265-1.584 2.444-2.28 4.74-2.862 7.58-.624 2.941-1.355 5.672-2.575 8.427.169-.219.338-.437.51-.662 3.039-3.872 6.393-7.395 9.86-10.878l.795-.8a87 87 0 0 1 4.605-4.272 120 120 0 0 0 3.144-2.864 138 138 0 0 1 3.9-3.517c1.56-1.36 3.04-2.79 4.504-4.254l.792-.794c2.314-2.341 4.386-4.797 6.36-7.434 2.097-2.747 2.097-2.747 3.71-3.547 2.442-1.369 3.605-4.288 4.891-6.67l.454-.823c2.777-5.042 2.777-5.042 3.666-7.44 1.801-4.779 4.827-9.027 7.865-13.086-1.49 1.36-2.591 2.946-3.745 4.588l-.59.824a35.4 35.4 0 0 0-3.155 5.45h-.75l-.266.886c-1.85 5.216-4.518 11.473-8.722 15.218h-.75a654 654 0 0 1-.06-5.353q-.009-.908-.024-1.816c-.109-6.898 1.046-12.273 5.958-17.427l.868-.872.729-.755c2.07-1.997 4.457-3.394 6.912-4.862 3.088-1.85 5.669-3.729 7.936-6.554z"/><path fill="#bc904b" d="m76.59 915.614 1.123.374c.506 1.05.506 1.05.983 2.364l.483 1.307c1.152 3.395 1.46 7.698.196 11.123-.432.87-.432.87-.913 1.686l-.446.816c-1.443 2.21-3.377 3.366-5.57 4.731-2.84 1.8-4.817 3.375-5.594 6.812-.565 5.033.809 9.01 2.809 13.554l.607 1.394q.615 1.407 1.235 2.813.807 1.828 1.603 3.66c3.856 8.767 8.43 16.787 17.588 20.794 2.97 1.143 5.955 1.716 9.116 1.98v1.123H48.125v-1.123c.362-.06.725-.12 1.098-.18 2.752-.483 5.11-1.05 7.57-2.447.695-.37.695-.37 1.444-.37l.305-.608c.32-.642.664-1.272 1.022-1.894 1.358-3.093.82-6.846-.273-9.95q-.512-1.271-1.054-2.529l-.475-1.18a121 121 0 0 0-2.333-5.35 66 66 0 0 1-1.873-4.542c-.562-1.491-1.163-2.915-1.896-4.33-.814-1.572-1.426-3.162-2.008-4.832a66 66 0 0 0-1.227-3.113q-.827-1.964-1.644-3.933a409 409 0 0 0-1.622-3.858q-.335-.792-.663-1.59c-1.32-3.206-2.596-5.868-5.36-8.096l-1.09-.937c-4.538-3.446-9.224-5.397-14.64-6.928l-1.185-.423c-2.096-.476-4.14-.404-6.282-.373l-1.317.01q-1.6.015-3.2.037c1.019-1.047 1.895-1.803 3.206-2.457l.868-.447c5.548-2.215 12.97-2.901 18.631-.677.942.407 1.85.863 2.762 1.334l1.645.794c3.11 1.54 5.872 3.248 8.468 5.573q.448.384.913.778c5.105 4.435 8.872 9.448 12.195 15.327l-.423-.767-.536-1.012-.54-1c-.403-1.044-.398-1.442.001-2.465l.445 1.264c.31.736.31.736.679 1.358l.913.351c1.32.548 1.545 1.289 2.115 2.555a93 93 0 0 1 1.466 3.836c1.513-5.992 1.513-5.992.935-8.215-.778-3.238-.718-7.963.938-10.886 1.744-2.742 3.872-4.527 6.6-6.233 2.244-1.448 3.242-2.38 3.886-5.003"/><path fill="#c79b54" d="M130.147 807h.75c.367 24.776.367 24.776-6.86 32.514-2.702 2.512-6.102 3.92-9.41 5.445-3.137 1.453-5.196 2.739-7.326 5.486q-1.017 1.313-2.037 2.622l-.538.694a39 39 0 0 1-3.845 4.243c-1.182 1.157-2.246 2.418-3.318 3.677a39 39 0 0 0 3.03-.863l.882-.286.934-.302c2.089-.676 4.135-1.276 6.296-1.685 1.928-.409 3.45-1.13 5.15-2.084 5.641-3.15 11.426-4.002 17.72-2.335 3.025 1.113 5.712 2.887 8.31 4.77 3.014 2.169 6.436 3.996 10.112 4.658-1.143.933-2.268 1.505-3.63 2.069l-1.26.527-1.313.54-3.812 1.588a130 130 0 0 0-4.408 1.99c-4.486 1.934-9.512 2.283-14.158.777-3.437-1.386-6.105-3.504-8.64-6.165-2.123-2.017-4.542-2.594-7.387-2.552-11.569 1.093-22.632 12.052-29.674 20.54l-.504.614c-1.993 2.399-1.993 2.399-3.49 2.544l-.75-.75c.07-1.556 1.178-2.603 2.154-3.721l.58-.67c3.813-4.323 7.94-8.487 12.313-12.245 1.064-.92 2.09-1.88 3.118-2.839a138 138 0 0 1 3.9-3.517c1.56-1.36 3.04-2.79 4.504-4.254l.792-.794c2.314-2.341 4.386-4.797 6.36-7.434 2.097-2.747 2.097-2.747 3.71-3.547 2.442-1.369 3.605-4.288 4.891-6.67l.454-.823c2.777-5.042 2.777-5.042 3.666-7.44 1.801-4.779 4.827-9.027 7.865-13.086-1.49 1.36-2.591 2.946-3.745 4.588l-.59.824a35.4 35.4 0 0 0-3.155 5.45h-.75l-.266.886c-1.85 5.216-4.518 11.473-8.722 15.218h-.75a654 654 0 0 1-.06-5.353q-.009-.908-.024-1.816c-.109-6.898 1.046-12.273 5.958-17.427l.868-.872.729-.755c2.07-1.997 4.457-3.394 6.912-4.862 3.088-1.85 5.669-3.729 7.936-6.554z"/><path fill="#c89c55" d="M109.548 891.27c1.305 1.067 2.528 2.205 3.745 3.37 3.226 3.012 6.828 5.672 10.862 7.49v.375l-.626.119a66 66 0 0 0-14.085 4.38c-1.44.626-2.872 1.086-4.39 1.494l-.935.414c-3.658 1.307-8.469.303-11.932-1.162-3.059-1.564-5.826-3.87-8.037-6.485-2.295-2.71-4.502-3.207-7.935-3.629v-.374h2.247v-.75h-1.498v-.748l4.12-1.498-1.498-.75c2.247-1.123 2.247-1.123 2.953-1.474a277 277 0 0 0 3.867-1.962l.789-.405q.75-.385 1.498-.778c6.966-3.555 14.626-1.924 20.855 2.372"/><path fill="#c99d56" d="m138.991 858.248.894.648c3.014 2.169 6.436 3.996 10.112 4.658-1.143.933-2.268 1.505-3.63 2.069l-1.26.527-1.313.54a1923 1923 0 0 0-3.812 1.588 130 130 0 0 0-4.408 1.99c-4.486 1.934-9.512 2.283-14.158.777-3.448-1.39-6.091-3.519-8.65-6.167-2.133-2.055-4.497-2.432-7.338-2.822v-.375l3.746-.749-1.498-.749 1.498-.374v-.75l-.75-.374.69-.222c2.536-.865 4.88-1.956 7.237-3.217 7.554-3.944 16.004-1.65 22.64 3.002"/><path fill="#c59953" d="m76.59 915.614 1.123.374c.506 1.05.506 1.05.983 2.364l.483 1.307c1.152 3.395 1.46 7.698.196 11.123-.432.87-.432.87-.913 1.686l-.446.816c-1.443 2.21-3.377 3.367-5.57 4.731-2.86 1.805-4.732 3.397-5.594 6.812a28.6 28.6 0 0 0-.375 4.494l-1.123-.374q-.11-1.755-.21-3.511l-.065-1.01-.055-.965-.053-.892c.008-.738.008-.738.383-1.487.084-2.284.084-2.284-.186-3.362-.802-3.215-.71-7.967.935-10.87 1.744-2.742 3.872-4.527 6.6-6.233 2.244-1.448 3.242-2.38 3.886-5.003"/><path fill="#f7f1e8" d="M35.017 917.112c5.12 1.743 9.368 4.356 13.483 7.865l.875.723c4.848 4.12 8.715 9.864 11.11 15.756l-.375.75c-1.082-1.607-2.158-3.212-3.16-4.87-5.266-8.459-12.714-14.139-21.559-18.352q-.75-.371-1.498-.749h1.124z"/><path fill="#f5edde" d="M112.17 899.509c-1.338.476-2.108.268-3.426-.205l-1.134-.396-1.199-.429c-5.724-1.979-11.157-3.164-17.228-3.16h-1.05c-2.116.015-4.09.181-6.16.652-1.537.289-3.077.228-4.634.167.913-.914 1.655-1.117 2.879-1.521l1.151-.388c10.54-2.937 21.157 1.427 30.8 5.28"/><path fill="#f7f2e6" d="M65.728 836.588c1.591 1.4 2.16 3.347 2.95 5.267l.504 1.22c1.373 3.388 2.504 6.795 3.288 10.367l.208.907c.615 2.959.665 5.863.658 8.877l.018 1.482c.001 2.714-.19 4.96-1.259 7.46l-.374 1.124h-.75c-.063-1.487-.001-2.741.37-4.184.41-1.783.51-3.472.496-5.296l-.005-.979c-.153-8.643-2.442-16.956-5.859-24.842-.245-.654-.245-.654-.245-1.403"/><path fill="#f8f2e7" d="M125.278 817.487c0 1.255-.164 1.494-.864 2.484l-.563.812-.61.87c-1.584 2.318-3.05 4.652-4.353 7.14l-.405.773c-.803 1.564-1.506 3.156-2.193 4.775-1.408 3.062-2.951 6.054-4.729 8.918l-.787 1.272c-.938 1.151-1.736 1.613-3.099 2.17l-.374-1.499 1.025-.787c4.26-3.567 6.439-10.405 8.713-15.318h.749l.082-.782c.376-1.402 1.122-2.405 1.978-3.548.082-.114.082-.114.501-.686q.775-1.053 1.559-2.1l.506-.681a506 506 0 0 1 2.864-3.813"/><path fill="#f7f1e7" d="M116.664 858.849h1.48c4.917.06 9.544 1.088 14.25 2.458l1.064.31c1.55.458 3.069.919 4.554 1.562-.936.469-1.263.33-2.273.11l-.925-.198-.968-.216-.943-.202c-1.45-.315-2.892-.647-4.33-1.017-3.79-.931-7.53-1.165-11.417-1.168l-1.086-.001c-1.503.012-2.819.067-4.275.445-1.645.089-2.685.047-4.12-.749 3-1.126 5.802-1.34 8.99-1.334"/><path fill="#c49a56" d="M72.095 871.42h.75c1.066 2.207.524 3.877-.071 6.132l-.252 1.03a47 47 0 0 1-1.925 5.946l-.375-1.124-1.123.375c-.047-2.765-.047-2.765.176-3.862.246-1.248.326-2.477.409-3.746l.095-1.423.069-1.082 1.873-.374z"/><path fill="#b17e30" d="M53.369 988.647v.375l46.441.374v.375H48.5v-.375c1.699-.544 3.064-.837 4.869-.749"/><path fill="#f2e8d7" d="M65.728 836.588c1.591 1.4 2.16 3.347 2.95 5.267l.502 1.216c.988 2.442 1.89 4.887 2.611 7.421l.236.81c.421 1.593.454 2.79.068 4.387l-.21 1.077-.164.796h-.375l-.098-.884c-.826-6.574-2.644-12.616-5.275-18.687-.245-.654-.245-.654-.245-1.403"/><path fill="#f2e9d7" d="m75.466 923.104.749.375-.783 1.264c-3.06 4.961-6.063 9.952-8.58 15.215-.49-1.116-.347-1.584.03-2.77q.316-.75.648-1.49c.06-.132.06-.132.355-.8 1.2-2.59 2.797-4.794 4.51-7.06 1.112-1.518 2.084-3.133 3.07-4.734"/><path fill="#f4eddd" d="M125.278 817.487c0 1.255-.164 1.494-.864 2.484l-.563.812-.61.87c-2.213 3.233-4.074 6.567-5.828 10.066l-.465.928-.284.57-1.123-.374c.415-1.306.847-2.538 1.498-3.746h.749l.082-.782c.376-1.402 1.122-2.405 1.978-3.548l.501-.686q.775-1.053 1.559-2.1l.506-.681a506 506 0 0 1 2.864-3.813"/><path fill="#faf7f1" d="m117.273 858.99 1.572.015q1.906.02 3.812.055c-1.114.636-1.94.847-3.218.877l-.983.034-1.02.025c-3.85.095-3.85.095-5.64.937-1.654.115-2.68.044-4.12-.75 3.17-1.257 6.243-1.257 9.597-1.194"/><path fill="#f1e7d7" d="M52.994 930.22c1.543.515 2.053 1.572 2.903 2.88l.496.755c1.557 2.413 3.032 4.926 4.092 7.601l-.375.75c-1.082-1.607-2.158-3.212-3.16-4.87-.889-1.445-1.922-2.746-3-4.053-.616-.864-.977-1.692-1.33-2.688z"/><path fill="#f3e6d0" d="M95.316 894.266c2.318.195 4.34.588 6.531 1.357l.86.295c3.19 1.104 6.33 2.339 9.463 3.59-1.338.477-2.108.27-3.426-.204l-1.135-.396-1.198-.429c-3.303-1.147-6.517-2.131-9.971-2.715l.374-.75z"/><path fill="#cea667" d="M-81.837 953.816v.749c-2.926 1.95-6.369 1.577-9.738 1.498 1.026-1.24 1.536-1.828 3.163-2.042l1.379.076c1.843.085 3.39-.281 5.196-.281"/><path fill="#c0934b" d="M80.335 897.636c1.526.515 2.498 1.203 3.675 2.294l.999.915c.944.911.944.911 1.641 1.694 2.3 2.574 5.21 3.788 8.291 5.21q.752.37 1.499.749c-4.781-.228-8.42-2.963-11.614-6.436q-.632-.75-1.256-1.507c-.954-1.044-2.066-1.757-3.235-2.544z"/><path fill="#d0ab69" d="m114.417 856.063 1.124.75-1.873 1.498 7.116.374v.375l-.824.028-3.717.136-1.296.044-1.258.048-1.154.041c-1.14.08-2.238.246-3.361.452v-.75l-.75-.374.836-.288c.365-.13.73-.258 1.108-.39l1.092-.383c1.066-.43 1.99-.944 2.957-1.56"/><path fill="#fcfbf8" d="m87.076 894.266.375.749c-3.397.662-6.635 1.289-10.112 1.123 2.561-2.562 6.413-1.981 9.737-1.872"/><path fill="#c3944c" d="M110.297 844.828c.375 1.123.375 1.123.164 1.825-.781 1.155-1.658 1.84-2.786 2.669h-1.123l-1.124.749c0-1.538.437-1.883 1.498-2.996a55 55 0 0 1 3.371-2.247"/><path fill="#c49a58" d="M-70.226 897.636h14.98v.375c-10.018 1.049-10.018 1.049-14.98 0z"/><path fill="#c59b58" d="m68.35 898.385 1.498.75v1.498c-1.124.842-1.124.842-2.247 1.498l-1.498-1.124c.521-1.261 1.115-1.867 2.247-2.622"/><path fill="#c79d57" d="m-95.694 907 .749.374v.75c-.59.58-.59.58-1.382 1.24a44 44 0 0 0-2.668 2.434c-.82.82-.82.82-1.943 1.569l-.374-1.124 1.756-1.78.987-1A34 34 0 0 1-95.694 907"/><path fill="#eee3ce" d="M65.728 836.588c1.516 1.35 2.096 3.13 2.88 4.962q.231.52.471 1.055c.845 1.961 1.347 3.456 1.143 5.593-.782-.782-.938-1.151-1.26-2.178l-.278-.863-.287-.914c-.766-2.377-1.616-4.639-2.669-6.906z"/><path fill="#f0e7d6" d="M55.241 917.86h.375v7.866c-1.096-.548-1.146-1.274-1.545-2.411-.132-.37-.265-.74-.4-1.122-.302-.961-.302-.961-.302-1.71h1.498z"/><path fill="#b98c44" d="M12.17 980.782h3.371l-1.498 1.498c.962.481 1.785.498 2.856.585l1.138.095.875.07c-1.402.934-2.083.889-3.745.748-1.427-.511-2.066-.768-2.763-2.13z"/><path fill="#f1e5cf" d="m75.466 923.104.749.375q-.98 1.628-1.966 3.254l-.558.926c-.948 1.562-1.903 3.041-3.094 4.434-.297-.601-.297-.601-.375-1.498a23 23 0 0 1 1.756-2.364c1.352-1.64 2.474-3.254 3.488-5.127"/><path fill="#fbfaf6" d="M72.095 854.94c.962 1.439.834 2.926.796 4.588l-.01.846q-.015 1.027-.037 2.056l-.749.375c-.912-6.041-.912-6.041 0-7.865"/><path fill="#c69e5d" d="M60.11 935.838c.735 1.313 1.108 2.672 1.498 4.12-2.09-.546-2.09-.546-2.785-1.451-.248-.937-.233-1.41.164-2.294z"/><path fill="#c7a062" d="M-91.2 1005.5h8.24l-.375 1.125q-1.545.044-3.09.07l-.882.028-.856.011-.784.018c-.755-.127-.755-.127-2.253-1.251"/><path fill="#c49b5b" d="M40.635 890.895c.831.832 1.062 1.436 1.474 2.528.438 1.14.888 2.19 1.451 3.277l.445.936-.374.75-1.124-.375a27 27 0 0 1-1.006-2.739l-.256-.769c-.41-1.275-.61-2.255-.61-3.608"/><path fill="#c69d5b" d="M-104.683 916.737c.512 1.39.234 2.259-.258 3.629l-.378 1.104c-.488.885-.488.885-1.291 1.197l-.695.063c.617-2.13 1.607-4.033 2.622-5.993"/><path fill="#cba361" d="m-23.036 917.112.75.749c-.126 1.804-.753 3.248-1.499 4.869l-1.123-.375c.578-1.768 1.153-3.527 1.872-5.243"/><path fill="#c8a365" d="M19.286 918.235h-1.123v.75l-1.498.749.374.749h-2.996v-1.124q.886-.394 1.779-.772l1-.435c1.024-.308 1.479-.282 2.464.083"/><path fill="#b98d45" d="M82.207 893.891c-1.623 1.082-3.26 1.962-5.243 1.756l-.75-.258c.375-.749.375-.749 1.101-1.17 1.633-.467 3.206-.387 4.892-.328"/><path fill="#c29959" d="m-36.144 987.898.74.15c1.747.354 3.492.696 5.252.974v.374h-6.367z"/><path fill="#ceab70" d="M-71.35 898.385c-.655.585-.655.585-1.498 1.124-.796-.164-.796-.164-1.498-.375l-.75.75v-.75l-1.03.422c-1.216.327-1.216.327-2.041-.026q-.333-.194-.673-.396 1.45-.297 2.902-.585l.828-.172c1.388-.271 2.41-.403 3.76.008"/><path fill="#ecddc2" d="M125.278 817.487c0 1.258-.185 1.537-.875 2.544l-.552.808-.586.838-.576.85c-1.067 1.543-1.067 1.543-1.53 2.076h-.75c.518-1.499 1.214-2.552 2.224-3.769.907-1.1 1.8-2.2 2.645-3.347"/><path fill="#c19553" d="m96.908 988.624.845.113q1.03.139 2.057.284v.375h-7.865c.375-.75.375-.75 1.056-.991 1.318-.214 2.597.033 3.907.219"/><path fill="#f4ecdf" d="m35.017 917.112 2.996 1.123-.375 1.499-3.745-1.124 1.124-.375z"/><path fill="#c9a261" d="M-15.17 898.76c.55 1.652.163 2.882-.375 4.494h-.749l-.375 1.498h-.749c.655-2.047 1.37-4.029 2.248-5.992"/><path fill="#c29a5d" d="m56.365 987.523-.375 1.873h-3.745v-1.123q.817-.298 1.639-.585c.304-.11.608-.218.921-.33.81-.209.81-.209 1.56.165"/><path fill="#c99c54" d="M-81.837 953.816v.749c-1.17.78-1.325.838-2.626.74l-.86-.059-.891-.073c-.299-.02-.597-.042-.905-.064q-1.104-.08-2.208-.17v-.374l1.025-.07c.221-.014.221-.014 1.339-.094l1.33-.092c1.361-.137 2.407-.493 3.796-.493"/><path fill="#bd8d44" d="m69.099 881.531.14.726.234.773.75.374c-.281 1.78-.281 1.78-1.124 2.622l-.75-.375.165-1.638.092-.922c.118-.81.118-.81.493-1.56"/><path fill="#b68335" d="M53.369 988.647v.375l3.37.374v.375H48.5v-.375c1.7-.544 3.065-.837 4.87-.749"/><path fill="#c1974f" d="M12.92 920.108c1.048.014 1.888.09 2.902.281l.791.129c.643.105 1.284.221 1.924.34v.374l-7.116.374z"/><path fill="#b5863d" d="M58.237 936.587c.75 1.124.75 1.124 1.054 1.896.6.98 1.247 1.137 2.317 1.475l-.749 1.873c-1.25-1.121-1.975-2.194-2.622-3.745z"/><path fill="#bd9042" d="m73.219 936.587.749.375c-1.983 1.395-3.967 2.787-5.993 4.12.906-2.306 3.137-3.421 5.244-4.495"/><path fill="#c9a364" d="m-18.541 906.625 1.123.375c-.452 1.66-.942 2.614-2.247 3.745l-.749-1.124.515-.445c.712-.794 1.007-1.551 1.358-2.551"/><path fill="#ecdabe" d="m132.131 861.414 1.012.267c.381.085.761.17 1.153.256l1.188.283 1.2.28.954.305.374.75-7.865-1.499c1.124-.75 1.124-.75 1.984-.642"/><path fill="#d6b783" d="M120.41 836.213c-1.275.85-1.935.886-3.442.984l-1.233.085-.943.055.374-1.124q.994-.109 1.99-.21l1.119-.119c1.01-.045 1.01-.045 2.134.33"/><path fill="#ba8d46" d="m-41.013 984.153.494.439c1.4 1.224 2.805 2.31 4.375 3.306-1.124.375-1.124.375-1.767.054-2.339-1.749-2.339-1.749-3.102-3.05z"/><path fill="#c99e5a" d="m-43.635 902.505 1.452.328.816.184c.729.237.729.237 1.478.986-1.608.473-2.576.236-4.12-.374z"/><path fill="#eee4d3" d="m82.582 894.64-1.873.75v.748h-3.37c.757-.757 1.22-1.002 2.2-1.381l.77-.309c.891-.21 1.413-.095 2.273.192"/><path fill="#c69b58" d="m-99.44 986.774 1.124.375q-.427.66-.866 1.31l-.487.738-.52.574h-1.123c.444-1.264.852-2.115 1.872-2.997"/><path fill="#cfa86a" d="M-102.81 940.707c.88.88 1.022 1.482 1.357 2.669l.296 1.033.22.793c-1.124-.375-1.124-.375-1.593-1.264-.28-.984-.28-.984.094-2.107l-.749-.375z"/><path fill="#cda361" d="M-108.803 936.213c.562.445.562.445 1.124 1.123.07 1.007.07 1.007 0 1.873l1.123.375-.749 1.872c-1.118-1.676-1.498-3.235-1.498-5.243"/><path fill="#f7f1e4" d="M69.848 931.344h.749c-.209 1.252-.506 2.26-1.124 3.37H68.35c.396-1.274.752-2.252 1.498-3.37"/><path fill="#f2e8d8" d="M95.316 894.266q.808.08 1.615.164l.909.092c.847.118.847.118 1.97.493v.749h-3.37l.374-.75z"/><path fill="#c7a05f" d="M66.852 887.15h1.123c-.208 1.252-.506 2.259-1.123 3.37h-1.124z"/><path fill="#caa261" d="m104.68 859.809-1.124 2.247.749.374h-2.247l.749-.374-.375-1.873c1.124-.374 1.124-.374 2.247-.374"/><path fill="#ba8e46" d="m-56.369 983.778.375 1.124-2.996 2.996c0-1.415.373-1.67 1.31-2.692l.738-.812z"/><path fill="#c79f5e" d="M-97.567 986.774h2.622l.374 1.499-2.621-.375z"/><path fill="#f3ecde" d="M72.47 881.906c-.522 1.661-1.35 2.575-2.622 3.745q.252-.832.515-1.662c.095-.308.19-.617.29-.935.416-1.01.736-1.148 1.817-1.148"/><path fill="#bb8d47" d="M6.552 843.704c0 1.483-.505 1.809-1.498 2.88l-.842.917-.656.697c0-1.483.505-1.808 1.498-2.88l.843-.916z"/><path fill="#c49a5b" d="M61.234 940.333h.749c.234.678.234.678.374 1.498l-.749 1.123-.374.75-.75-.75c.123-.98.308-1.738.75-2.621"/><path fill="#cea662" d="M-103.56 936.587h.375l.375 4.12-1.124-.374z"/><path fill="#c19a59" d="M-76.968 1001.381v1.124c-1.24.421-1.24.421-2.622.749l-1.123-.75q.725-.282 1.451-.561l.817-.316c.728-.246.728-.246 1.477-.246"/><path fill="#c69e5c" d="m-11.8 890.895.75 1.123c-.328 1.194-.328 1.194-.75 2.248h-1.123z"/><path fill="#c29a58" d="M37.638 885.651h1.124c.547.992.749 1.459.749 2.622h-1.124z"/><path fill="#f8f3eb" d="M8.8 856.438h.749l.749 2.247-2.248.375z"/><path fill="#c49d5a" d="M-32.024 938.46c.749 1.124.749 1.124.608 1.943l-.234.679h-.749v.749h-.749z"/><path fill="#ba8a44" d="M27.526 898.01c1.233 1.353 1.703 2.295 1.873 4.12-1.023-.882-1.457-1.715-1.873-2.996z"/><path fill="#bb8f45" d="m71.72 897.636 1.873.375c-1.314 1.16-2.431 1.776-4.12 2.247.612-.64 1.075-1.1 1.873-1.498z"/><path fill="#cba160" d="m72.095 873.666.375.75h.749l-.375 2.247-1.498-1.499z"/><path fill="#b48941" d="M5.054 863.929c.375 1.123.375 1.123.084 1.888l-.435.804-.432.811-.34.616c-.375-.749-.375-.749-.179-1.464l.32-.806.312-.81c.296-.665.296-.665.67-1.04"/><path fill="#ca9e5b" d="M58.987 823.854c.924.431 1.516.767 2.247 1.498-.14.983-.14.983-.375 1.873-.749-1.124-.749-1.124-.749-1.873h-.749z"/><path fill="#cda45b" d="m127.9 809.622.375 1.123c-.656.773-.656.773-1.499 1.498l-1.498-.374z"/><path fill="#cba462" d="M85.204 895.39v1.123l-4.12-.375v-.374c1.395-.26 2.7-.416 4.12-.375"/><path fill="#d3a969" d="m76.59 915.614 1.123.374c.445 1.334.445 1.334.75 2.622h-.75c-.765-1.088-1.124-1.648-1.124-2.996"/><path fill="#cda869" d="m-88.204 902.505.75.375-.75 1.123c-1.357.258-1.357.258-2.621.375.792-.872 1.516-1.445 2.621-1.873"/><path fill="#c29550" d="m106.177 859.434.75.375c.233.772.233.772.374 1.498h-1.873l-.374-.75z"/><path fill="#f9f5ec" d="m116.29 832.468.374 1.124-.749 1.123h-1.123c.655-1.826.655-1.826 1.498-2.247"/><path fill="#c09654" d="M85.953 985.65c2.528.282 2.528.282 3.37 1.124-.632.281-.632.281-1.498.375-1.03-.726-1.03-.726-1.872-1.498"/><path fill="#cba05b" d="M-103.56 948.198c.703.093.703.093 1.499.374.468.773.468.773.749 1.498h-1.124c-.632-.936-.632-.936-1.123-1.872"/><path fill="#c59c5d" d="m-29.777 944.453.749.749c-.137 1.099-.324 1.447-1.124 2.247-.348-.976-.43-1.364-.023-2.341z"/><path fill="#b98d43" d="M67.6 934.34c.375 1.124.375 1.124-.163 2.318l-.585 1.053c-.258-.632-.258-.632-.375-1.498.539-1.03.539-1.03 1.124-1.873"/><path fill="#c9a165" d="m-21.912 914.49.75.75c-.141.982-.141.982-.375 1.872h-1.124z"/><path fill="#c2974d" d="M115.54 835.09h.75v.749h2.247c-1.21.806-1.605.824-2.996.749z"/><path stroke="#cca157" stroke-linecap="round" stroke-width="2.2" d="M207 965.5h75m691 0h75"/><g><path fill="#fff" transform="translate(190.000 896.500) scale(0.104000 -0.104000)" d="M179 245 192 270H472L479 245ZM711 12Q715 12 715.0 6.0Q715 0 711 0Q681 0 649.5 2.0Q618 4 589 4Q556 4 531.5 2.0Q507 0 477 0Q473 0 473.0 6.0Q473 12 477 12Q522 12 531.0 28.0Q540 44 516 91L307 516L348 583L150 137Q124 76 148.5 44.0Q173 12 232 12Q237 12 237.0 6.0Q237 0 232 0Q202 0 177.0 2.0Q152 4 114 4Q76 4 53.5 2.0Q31 0 -2 0Q-6 0 -6.0 6.0Q-6 12 -2 12Q25 12 44.5 23.0Q64 34 83.0 63.5Q102 93 125 146L340 631Q342 634 349.0 634.0Q356 634 357 631L602 137Q625 89 643.0 61.5Q661 34 677.0 23.0Q693 12 711 12Z"/>
<path fill="#fff" transform="translate(282.536 896.500) scale(0.104000 -0.104000)" d="M482 329 357 1Q356 -3 346.5 -3.0Q337 -3 335 1L82 542Q69 571 58.5 586.0Q48 601 35.5 607.0Q23 613 3 613Q0 613 0.0 619.0Q0 625 3 625Q16 625 24.5 624.0Q33 623 45.5 622.5Q58 622 79 622Q119 622 143.5 622.5Q168 623 185.0 624.0Q202 625 215 625Q218 625 218.0 619.0Q218 613 215 613Q175 613 167.5 597.5Q160 582 183 532L384 105L344 43L464 355ZM923 625Q925 625 925.0 619.0Q925 613 923 613Q888 613 858.0 586.5Q828 560 807 508L613 1Q612 -3 602.5 -3.0Q593 -3 591 1L338 542Q322 577 306.0 595.0Q290 613 268 613Q265 613 265.0 619.0Q265 625 268 625Q279 625 287.5 624.0Q296 623 306.5 622.5Q317 622 336 622Q384 622 406.5 623.5Q429 625 445 625Q448 625 448.0 619.0Q448 613 445 613Q417 613 416.0 598.5Q415 584 439 532L641 105L601 43L778 505Q796 554 782.0 583.5Q768 613 725 613Q722 613 722.0 619.0Q722 625 725 625Q751 625 774.5 623.5Q798 622 834 622Q862 622 880.0 623.5Q898 625 923 625ZM470 355 530 512Q551 565 548.5 589.0Q546 613 518 613Q515 613 515.0 619.0Q515 625 518 625Q528 625 532.5 624.0Q537 623 547.0 622.5Q557 622 583 622Q609 622 625.0 623.5Q641 625 664 625Q666 625 666.0 619.0Q666 613 664 613Q631 613 604.5 588.5Q578 564 557 508L488 329Z"/>
<path fill="#fff" transform="translate(396.599 896.500) scale(0.104000 -0.104000)" d="M179 245 192 270H472L479 245ZM711 12Q715 12 715.0 6.0Q715 0 711 0Q681 0 649.5 2.0Q618 4 589 4Q556 4 531.5 2.0Q507 0 477 0Q473 0 473.0 6.0Q473 12 477 12Q522 12 531.0 28.0Q540 44 516 91L307 516L348 583L150 137Q124 76 148.5 44.0Q173 12 232 12Q237 12 237.0 6.0Q237 0 232 0Q202 0 177.0 2.0Q152 4 114 4Q76 4 53.5 2.0Q31 0 -2 0Q-6 0 -6.0 6.0Q-6 12 -2 12Q25 12 44.5 23.0Q64 34 83.0 63.5Q102 93 125 146L340 631Q342 634 349.0 634.0Q356 634 357 631L602 137Q625 89 643.0 61.5Q661 34 677.0 23.0Q693 12 711 12Z"/>
<path fill="#fff" transform="translate(489.135 896.500) scale(0.104000 -0.104000)" d="M109 81V544Q109 573 104.0 587.5Q99 602 82.5 607.5Q66 613 33 613Q31 613 31.0 619.0Q31 625 33 625Q59 625 90.0 623.5Q121 622 156 622Q194 622 225.0 623.5Q256 625 280 625Q283 625 283.0 619.0Q283 613 280 613Q248 613 232.0 607.0Q216 601 210.0 586.0Q204 571 204 542V81Q204 52 209.5 37.0Q215 22 231.0 17.0Q247 12 280 12Q284 12 284.0 6.0Q284 0 280 0Q255 0 224.5 1.0Q194 2 156 2Q121 2 89.0 1.0Q57 0 32 0Q30 0 30.0 6.0Q30 12 32 12Q65 12 81.5 17.0Q98 22 103.5 37.0Q109 52 109 81ZM369 145 224 335 294 399 444 200Q485 144 514.0 108.5Q543 73 562.0 52.5Q581 32 596.0 23.5Q611 15 625.0 13.5Q639 12 656 12Q659 12 659.0 6.0Q659 0 656 0Q612 0 585.0 0.0Q558 0 544 0Q531 0 522.0 -1.0Q513 -2 506 -2Q492 -2 482.5 3.0Q473 8 460.5 23.0Q448 38 426.5 67.0Q405 96 369 145ZM143 268 401 530Q438 567 430.0 590.0Q422 613 371 613Q369 613 369.0 619.0Q369 625 371 625Q398 625 425.0 623.5Q452 622 496 622Q541 622 567.0 623.5Q593 625 618 625Q621 625 621.0 619.0Q621 613 618 613Q575 613 523.0 590.0Q471 567 426 524L170 266Z"/>
<path fill="#fff" transform="translate(575.638 896.500) scale(0.104000 -0.104000)" d="M476 0H42Q39 0 39.0 6.0Q39 12 42 12Q75 12 91.0 17.0Q107 22 112.5 37.0Q118 52 118 81V544Q118 573 112.5 587.5Q107 602 91.0 607.5Q75 613 42 613Q39 613 39.0 619.0Q39 625 42 625H458Q468 625 468 616L470 486Q470 484 465.0 483.5Q460 483 458 486Q447 543 412.0 571.0Q377 599 320 599H279Q254 599 239.5 593.5Q225 588 219.0 575.5Q213 563 213 542V85Q213 64 218.5 50.5Q224 37 236.0 31.5Q248 26 270 26H319Q387 26 429.0 58.5Q471 91 489 155Q490 158 495.5 157.0Q501 156 501 154Q497 126 494.0 87.0Q491 48 491 15Q491 0 476 0ZM420 226Q420 268 392.0 290.0Q364 312 308 312H168V338H309Q365 338 392.0 357.0Q419 376 419 412Q419 415 424.5 415.0Q430 415 430 412Q430 380 429.5 362.0Q429 344 429 325Q429 301 430.5 277.5Q432 254 432 226Q432 224 426.0 224.0Q420 224 420 226Z"/>
<path fill="#fff" transform="translate(651.118 896.500) scale(0.104000 -0.104000)" d="M125 121V602L152 600V121Q152 68 173.0 40.0Q194 12 233 12Q236 12 236.0 6.0Q236 0 233 0Q212 0 189.5 1.0Q167 2 140 2Q111 2 84.5 1.0Q58 0 35 0Q32 0 32.0 6.0Q32 12 35 12Q79 12 102.0 40.0Q125 68 125 121ZM633 -14Q633 -17 628.0 -17.5Q623 -18 621 -17L140 543Q104 584 78.5 598.5Q53 613 29 613Q26 613 26.0 619.0Q26 625 29 625Q48 625 68.0 624.0Q88 623 105 623Q135 623 159.5 624.0Q184 625 197 625Q210 625 216.0 613.5Q222 602 246 573L625 127ZM633 503V-14L606 16V503Q606 556 585.5 584.5Q565 613 525 613Q523 613 523.0 619.0Q523 625 525 625Q546 625 569.0 623.5Q592 622 619 622Q645 622 670.0 623.5Q695 625 716 625Q719 625 719.0 619.0Q719 613 716 613Q676 613 654.5 584.5Q633 556 633 503Z"/>
<path fill="#fff" transform="translate(745.837 896.500) scale(0.104000 -0.104000)" d="M179 245 192 270H472L479 245ZM711 12Q715 12 715.0 6.0Q715 0 711 0Q681 0 649.5 2.0Q618 4 589 4Q556 4 531.5 2.0Q507 0 477 0Q473 0 473.0 6.0Q473 12 477 12Q522 12 531.0 28.0Q540 44 516 91L307 516L348 583L150 137Q124 76 148.5 44.0Q173 12 232 12Q237 12 237.0 6.0Q237 0 232 0Q202 0 177.0 2.0Q152 4 114 4Q76 4 53.5 2.0Q31 0 -2 0Q-6 0 -6.0 6.0Q-6 12 -2 12Q25 12 44.5 23.0Q64 34 83.0 63.5Q102 93 125 146L340 631Q342 634 349.0 634.0Q356 634 357 631L602 137Q625 89 643.0 61.5Q661 34 677.0 23.0Q693 12 711 12Z"/>
<path fill="#fff" transform="translate(838.373 896.500) scale(0.104000 -0.104000)" d="M538 0Q523 0 488.0 38.0Q453 76 403.5 147.5Q354 219 293 318L373 342Q454 221 511.5 148.5Q569 76 613.5 44.0Q658 12 699 12Q701 12 701.0 6.0Q701 0 699 0Q636 0 596.5 0.0Q557 0 538 0ZM311 628Q398 628 445.5 593.5Q493 559 493 499Q493 442 460.5 397.0Q428 352 376.5 327.0Q325 302 266 302Q254 302 240.0 302.5Q226 303 215 304V81Q215 52 220.0 37.0Q225 22 241.5 17.0Q258 12 290 12Q293 12 293.0 6.0Q293 0 290 0Q265 0 234.0 1.0Q203 2 166 2Q131 2 99.0 1.0Q67 0 42 0Q39 0 39.0 6.0Q39 12 42 12Q75 12 91.0 17.0Q107 22 113.0 37.0Q119 52 119 81V544Q119 573 113.5 587.5Q108 602 92.0 607.5Q76 613 43 613Q41 613 41.0 619.0Q41 625 43 625Q68 625 99.5 623.5Q131 622 166 622Q198 622 238.0 625.0Q278 628 311 628ZM394 464Q394 522 380.5 553.5Q367 585 343.0 597.0Q319 609 287 609Q248 609 231.5 594.5Q215 580 215 542V331Q229 329 245.0 328.0Q261 327 273 327Q340 327 367.0 360.5Q394 394 394 464Z"/>
<path fill="#fff" transform="translate(928.620 896.500) scale(0.104000 -0.104000)" d="M210 604Q149 604 110.5 566.0Q72 528 50 454Q50 451 44.5 451.5Q39 452 39 454Q41 468 43.0 492.5Q45 517 47.5 546.0Q50 575 51.5 602.5Q53 630 53 647Q53 652 58.5 652.0Q64 652 64 647Q64 637 74.5 632.5Q85 628 98.0 626.5Q111 625 120 625Q206 622 321 622Q392 622 433.5 623.5Q475 625 514 625Q550 625 568.5 629.5Q587 634 592 650Q593 654 598.0 654.0Q603 654 603 650Q602 634 600.0 606.5Q598 579 597.0 548.5Q596 518 595.0 492.5Q594 467 594 454Q594 452 588.5 452.0Q583 452 582 454Q571 533 534.0 568.5Q497 604 435 604Q408 604 394.0 599.0Q380 594 375.0 580.5Q370 567 370 542V81Q370 52 376.5 37.0Q383 22 401.5 17.0Q420 12 458 12Q461 12 461.0 6.0Q461 0 458 0Q431 0 396.5 1.0Q362 2 321 2Q282 2 248.0 1.0Q214 0 185 0Q183 0 183.0 6.0Q183 12 185 12Q223 12 242.0 17.0Q261 22 267.5 37.0Q274 52 274 81V544Q274 569 269.5 581.5Q265 594 251.0 599.0Q237 604 210 604Z"/>
<path fill="#fff" transform="translate(1013.772 896.500) scale(0.104000 -0.104000)" d="M164 518Q164 479 184.0 450.5Q204 422 235.5 399.0Q267 376 302 354Q340 331 374.5 305.0Q409 279 431.5 245.5Q454 212 454 164Q454 112 427.0 72.5Q400 33 352.5 10.5Q305 -12 241 -12Q214 -12 184.5 -7.0Q155 -2 129.5 7.0Q104 16 88 26Q84 29 81.5 33.0Q79 37 78 45L72 196Q71 201 76.5 201.5Q82 202 83 198Q95 168 111.5 134.5Q128 101 150.0 73.0Q172 45 200.5 27.5Q229 10 266 10Q292 10 315.0 19.0Q338 28 353.0 50.5Q368 73 368 112Q368 159 346.5 192.5Q325 226 292.0 251.0Q259 276 223 298Q188 321 156.0 345.0Q124 369 103.5 400.5Q83 432 83 477Q83 532 113.0 567.0Q143 602 189.5 619.0Q236 636 285 636Q318 636 352.0 630.0Q386 624 410 613Q419 610 422.0 605.0Q425 600 425 594L427 459Q427 455 422.5 454.0Q418 453 416 456Q411 471 401.0 497.5Q391 524 373.0 551.0Q355 578 328.0 597.0Q301 616 262 616Q232 616 210.0 604.0Q188 592 176.0 570.5Q164 549 164 518Z"/><path fill="#FAF7F2" transform="translate(312.000 978.000) scale(0.050000 -0.050000)" d="M490 1 372 542Q364 581 351.5 597.0Q339 613 313 613Q310 613 310.0 619.0Q310 625 313 625Q330 625 349.5 623.5Q369 622 388 622Q410 622 426.0 623.5Q442 625 455 625Q460 625 460.0 619.0Q460 613 455 613Q430 613 426.5 603.0Q423 593 431 552L538 67L498 12L770 542Q789 578 779.0 595.5Q769 613 723 613Q719 613 719.0 619.0Q719 625 723 625Q743 625 762.0 623.5Q781 622 811 622Q835 622 850.5 623.5Q866 625 889 625Q893 625 893.0 619.0Q893 613 889 613Q872 613 855.0 607.0Q838 601 822.5 585.0Q807 569 790 536L511 1Q509 -3 500.0 -3.0Q491 -3 490 1ZM260 1 143 542Q135 581 121.0 597.0Q107 613 81 613Q78 613 78.0 619.0Q78 625 81 625Q99 625 119.5 623.5Q140 622 158 622Q188 622 211.5 623.5Q235 625 254 625Q258 625 258.0 619.0Q258 613 254 613Q225 613 209.5 600.5Q194 588 201 552L309 67L269 12L439 344L450 326L282 1Q279 -3 270.0 -3.0Q261 -3 260 1ZM459 326 447 344 548 542Q568 580 564.5 596.5Q561 613 530 613Q527 613 527.0 619.0Q527 625 530 625Q544 625 556.5 623.5Q569 622 589 622Q612 622 627.0 623.5Q642 625 664 625Q667 625 667.0 619.0Q667 613 664 613Q647 613 631.0 607.0Q615 601 599.5 585.0Q584 569 567 536Z"/>
<path fill="#FAF7F2" transform="translate(356.475 978.000) scale(0.050000 -0.050000)" d="M62 -8Q48 -8 43.5 -6.5Q39 -5 39 -2Q39 2 44.5 25.0Q50 48 54 74L156 619Q163 655 148.0 664.0Q133 673 88 651Q84 649 81.5 655.0Q79 661 83 662L212 725Q216 727 220.0 723.0Q224 719 223 717L94 7Q92 -8 62 -8ZM317 -9Q291 -9 284.5 13.0Q278 35 288 89L317 248Q328 305 319.0 332.5Q310 360 280 360Q248 360 213.0 319.0Q178 278 146.5 199.0Q115 120 94 7L82 8Q103 125 138.0 213.0Q173 301 218.5 350.0Q264 399 313 399Q356 399 369.5 368.0Q383 337 371 267L338 89Q333 59 337.5 45.0Q342 31 355 31Q366 31 383.0 43.5Q400 56 421 77Q425 81 429.0 77.0Q433 73 429 69Q397 32 370.0 11.5Q343 -9 317 -9Z"/>
<path fill="#FAF7F2" transform="translate(382.050 978.000) scale(0.050000 -0.050000)" d="M155 -12Q102 -12 71.5 16.0Q41 44 31.5 89.0Q22 134 32 185Q38 222 58.5 260.5Q79 299 110.0 330.0Q141 361 179.0 380.0Q217 399 260 399Q297 399 314.5 384.5Q332 370 328 345Q323 321 300.0 299.0Q277 277 241.0 259.5Q205 242 160.5 229.0Q116 216 68 211L70 224Q147 235 199.5 259.5Q252 284 261 324Q268 351 252.0 361.5Q236 372 216 372Q182 372 157.0 351.0Q132 330 116.0 295.0Q100 260 93 218Q82 162 90.5 118.0Q99 74 125.0 48.0Q151 22 193 22Q217 22 243.0 29.0Q269 36 294 55Q297 57 300.5 53.0Q304 49 301 46Q263 15 227.0 1.5Q191 -12 155 -12Z"/>
<path fill="#FAF7F2" transform="translate(402.525 978.000) scale(0.050000 -0.050000)" d="M337 -9Q311 -9 304.5 13.0Q298 35 308 89L337 248Q360 360 300 360Q268 360 233.0 319.0Q198 278 166.5 199.0Q135 120 114 7L102 8Q123 125 158.0 213.0Q193 301 238.5 350.0Q284 399 333 399Q376 399 390.5 368.0Q405 337 391 267L358 89Q353 59 358.0 45.0Q363 31 375 31Q386 31 403.0 43.5Q420 56 441 77Q444 81 448.5 77.0Q453 73 449 69Q417 32 390.0 11.5Q363 -9 337 -9ZM82 -8Q68 -8 63.5 -6.5Q59 -5 59 -2Q59 2 64.5 25.0Q70 48 74 74L115 297Q125 356 98 356Q87 356 69.0 344.0Q51 332 29 310Q26 306 21.5 310.5Q17 315 21 318Q55 357 83.5 376.0Q112 395 138 395Q162 395 168.5 373.5Q175 352 166 299L114 7Q112 -8 82 -8Z"/>
<path fill="#FAF7F2" transform="translate(444.125 978.000) scale(0.050000 -0.050000)" d="M12 0Q10 0 10.0 6.0Q10 12 12 12Q43 12 59.5 17.0Q76 22 84.0 37.0Q92 52 97 81L179 544Q187 587 175.5 600.0Q164 613 118 613Q116 613 116.0 619.0Q116 625 118 625Q139 625 164.0 623.5Q189 622 218 622Q247 622 274.5 623.5Q302 625 321 625Q323 625 323.0 619.0Q323 613 321 613Q290 613 273.5 607.5Q257 602 249.5 587.0Q242 572 236 543L155 85Q148 43 158.5 31.0Q169 19 212 19H313Q371 19 407.0 55.0Q443 91 465 152Q465 155 471.5 154.0Q478 153 477 150Q469 123 459.5 85.0Q450 47 445 15Q442 0 429 0Z"/>
<path fill="#FAF7F2" transform="translate(472.250 978.000) scale(0.050000 -0.050000)" d="M81 -13Q48 -13 31.0 11.0Q14 35 21 91Q29 145 55.5 199.5Q82 254 120.5 299.0Q159 344 202.0 371.5Q245 399 284 399Q303 399 320.5 392.5Q338 386 351.0 370.5Q364 355 366 330L323 357Q336 359 352.5 373.5Q369 388 374 407Q376 410 381.5 409.0Q387 408 386 406L328 89Q318 31 343 31Q354 31 371.5 43.5Q389 56 409 77Q412 80 416.0 76.0Q420 72 417 69Q385 32 358.0 11.5Q331 -9 305 -9Q281 -9 274.0 13.0Q267 35 277 89L301 229L318 246Q288 170 248.0 111.5Q208 53 165.0 20.0Q122 -13 81 -13ZM117 36Q145 36 175.0 58.0Q205 80 232.5 115.5Q260 151 280.5 193.5Q301 236 309 277Q317 314 302.0 339.0Q287 364 250 364Q215 363 179.0 332.5Q143 302 115.0 251.5Q87 201 77 136Q70 86 79.5 61.0Q89 36 117 36Z"/>
<path fill="#FAF7F2" transform="translate(497.275 978.000) scale(0.050000 -0.050000)" d="M337 -9Q311 -9 304.5 13.0Q298 35 308 89L337 248Q360 360 300 360Q268 360 233.0 319.0Q198 278 166.5 199.0Q135 120 114 7L102 8Q123 125 158.0 213.0Q193 301 238.5 350.0Q284 399 333 399Q376 399 390.5 368.0Q405 337 391 267L358 89Q353 59 358.0 45.0Q363 31 375 31Q386 31 403.0 43.5Q420 56 441 77Q444 81 448.5 77.0Q453 73 449 69Q417 32 390.0 11.5Q363 -9 337 -9ZM82 -8Q68 -8 63.5 -6.5Q59 -5 59 -2Q59 2 64.5 25.0Q70 48 74 74L115 297Q125 356 98 356Q87 356 69.0 344.0Q51 332 29 310Q26 306 21.5 310.5Q17 315 21 318Q55 357 83.5 376.0Q112 395 138 395Q162 395 168.5 373.5Q175 352 166 299L114 7Q112 -8 82 -8Z"/>
<path fill="#FAF7F2" transform="translate(523.850 978.000) scale(0.050000 -0.050000)" d="M107 -281Q53 -281 17.5 -264.0Q-18 -247 -33.5 -219.5Q-49 -192 -42 -161Q-32 -117 13.5 -83.5Q59 -50 118 -18L125 -26Q102 -40 77.5 -55.5Q53 -71 35.5 -90.5Q18 -110 14 -138Q9 -170 25.0 -196.5Q41 -223 74.5 -238.0Q108 -253 155 -253Q209 -253 238.0 -230.5Q267 -208 269 -175Q270 -148 254.5 -128.0Q239 -108 214.0 -92.5Q189 -77 161.5 -63.5Q134 -50 110.5 -35.5Q87 -21 74.0 -3.5Q61 14 65 38Q70 60 88.5 80.0Q107 100 134 123L144 115Q133 109 123.5 95.5Q114 82 112 68Q109 47 123.5 31.0Q138 15 163.0 1.5Q188 -12 215.5 -25.5Q243 -39 267.5 -55.5Q292 -72 306.0 -94.0Q320 -116 317 -146Q314 -182 284.0 -212.5Q254 -243 208.0 -262.0Q162 -281 107 -281ZM151 98Q112 98 87.0 118.5Q62 139 53.5 172.5Q45 206 54 246Q62 288 86.5 321.0Q111 354 146.0 373.0Q181 392 221 392Q261 392 285.0 372.0Q309 352 317.0 319.0Q325 286 317 246Q308 201 282.0 168.0Q256 135 221.5 116.5Q187 98 151 98ZM176 117Q205 117 230.0 144.0Q255 171 263 219Q269 251 264.5 287.0Q260 323 243.5 348.5Q227 374 196 374Q166 374 140.5 345.0Q115 316 108 271Q102 236 107.5 200.0Q113 164 130.5 140.5Q148 117 176 117ZM258 346 257 353Q287 371 321.5 382.5Q356 394 384 394Q389 394 389.5 385.5Q390 377 387.5 367.0Q385 357 382.0 350.0Q379 343 376 345Q353 357 320.0 357.0Q287 357 258 346Z"/>
<path fill="#FAF7F2" transform="translate(546.125 978.000) scale(0.050000 -0.050000)" d="M132 -13Q89 -13 74.0 18.5Q59 50 73 119L109 297Q115 328 110.0 341.5Q105 355 93 355Q82 355 65.0 342.5Q48 330 27 309Q23 305 19.0 309.0Q15 313 19 317Q52 355 79.0 375.0Q106 395 132 395Q156 395 163.5 373.0Q171 351 160 297L128 138Q115 80 125.0 53.0Q135 26 164 26Q197 26 232.0 67.0Q267 108 298.5 187.0Q330 266 350 379L363 378Q343 261 307.5 173.0Q272 85 227.0 36.0Q182 -13 132 -13ZM327 -9Q302 -9 296.0 12.5Q290 34 299 87L350 379Q353 394 382 394Q397 394 401.5 392.0Q406 390 406 388Q406 384 401.0 361.0Q396 338 391 312L350 89Q340 30 366 30Q378 30 396.0 42.0Q414 54 436 76Q439 80 443.0 75.5Q447 71 444 68Q409 29 381.5 10.0Q354 -9 327 -9Z"/>
<path fill="#FAF7F2" transform="translate(572.700 978.000) scale(0.050000 -0.050000)" d="M81 -13Q48 -13 31.0 11.0Q14 35 21 91Q29 145 55.5 199.5Q82 254 120.5 299.0Q159 344 202.0 371.5Q245 399 284 399Q303 399 320.5 392.5Q338 386 351.0 370.5Q364 355 366 330L323 357Q336 359 352.5 373.5Q369 388 374 407Q376 410 381.5 409.0Q387 408 386 406L328 89Q318 31 343 31Q354 31 371.5 43.5Q389 56 409 77Q412 80 416.0 76.0Q420 72 417 69Q385 32 358.0 11.5Q331 -9 305 -9Q281 -9 274.0 13.0Q267 35 277 89L301 229L318 246Q288 170 248.0 111.5Q208 53 165.0 20.0Q122 -13 81 -13ZM117 36Q145 36 175.0 58.0Q205 80 232.5 115.5Q260 151 280.5 193.5Q301 236 309 277Q317 314 302.0 339.0Q287 364 250 364Q215 363 179.0 332.5Q143 302 115.0 251.5Q87 201 77 136Q70 86 79.5 61.0Q89 36 117 36Z"/>
<path fill="#FAF7F2" transform="translate(597.725 978.000) scale(0.050000 -0.050000)" d="M107 -281Q53 -281 17.5 -264.0Q-18 -247 -33.5 -219.5Q-49 -192 -42 -161Q-32 -117 13.5 -83.5Q59 -50 118 -18L125 -26Q102 -40 77.5 -55.5Q53 -71 35.5 -90.5Q18 -110 14 -138Q9 -170 25.0 -196.5Q41 -223 74.5 -238.0Q108 -253 155 -253Q209 -253 238.0 -230.5Q267 -208 269 -175Q270 -148 254.5 -128.0Q239 -108 214.0 -92.5Q189 -77 161.5 -63.5Q134 -50 110.5 -35.5Q87 -21 74.0 -3.5Q61 14 65 38Q70 60 88.5 80.0Q107 100 134 123L144 115Q133 109 123.5 95.5Q114 82 112 68Q109 47 123.5 31.0Q138 15 163.0 1.5Q188 -12 215.5 -25.5Q243 -39 267.5 -55.5Q292 -72 306.0 -94.0Q320 -116 317 -146Q314 -182 284.0 -212.5Q254 -243 208.0 -262.0Q162 -281 107 -281ZM151 98Q112 98 87.0 118.5Q62 139 53.5 172.5Q45 206 54 246Q62 288 86.5 321.0Q111 354 146.0 373.0Q181 392 221 392Q261 392 285.0 372.0Q309 352 317.0 319.0Q325 286 317 246Q308 201 282.0 168.0Q256 135 221.5 116.5Q187 98 151 98ZM176 117Q205 117 230.0 144.0Q255 171 263 219Q269 251 264.5 287.0Q260 323 243.5 348.5Q227 374 196 374Q166 374 140.5 345.0Q115 316 108 271Q102 236 107.5 200.0Q113 164 130.5 140.5Q148 117 176 117ZM258 346 257 353Q287 371 321.5 382.5Q356 394 384 394Q389 394 389.5 385.5Q390 377 387.5 367.0Q385 357 382.0 350.0Q379 343 376 345Q353 357 320.0 357.0Q287 357 258 346Z"/>
<path fill="#FAF7F2" transform="translate(620.000 978.000) scale(0.050000 -0.050000)" d="M155 -12Q102 -12 71.5 16.0Q41 44 31.5 89.0Q22 134 32 185Q38 222 58.5 260.5Q79 299 110.0 330.0Q141 361 179.0 380.0Q217 399 260 399Q297 399 314.5 384.5Q332 370 328 345Q323 321 300.0 299.0Q277 277 241.0 259.5Q205 242 160.5 229.0Q116 216 68 211L70 224Q147 235 199.5 259.5Q252 284 261 324Q268 351 252.0 361.5Q236 372 216 372Q182 372 157.0 351.0Q132 330 116.0 295.0Q100 260 93 218Q82 162 90.5 118.0Q99 74 125.0 48.0Q151 22 193 22Q217 22 243.0 29.0Q269 36 294 55Q297 57 300.5 53.0Q304 49 301 46Q263 15 227.0 1.5Q191 -12 155 -12Z"/>
<path fill="#FAF7F2" transform="translate(655.500 978.000) scale(0.050000 -0.050000)" d="M183 -12Q151 -12 119.5 -4.5Q88 3 53 22Q49 25 47.5 29.5Q46 34 47 41L61 173Q61 178 66.5 178.0Q72 178 72 173Q73 130 86.5 91.0Q100 52 130.0 28.0Q160 4 208 4Q238 4 265.5 15.5Q293 27 314.0 52.5Q335 78 342 121Q351 167 336.5 199.5Q322 232 294.0 256.5Q266 281 234 302Q203 324 175.5 347.5Q148 371 133.5 403.0Q119 435 127 481Q138 533 169.0 567.5Q200 602 243.0 619.0Q286 636 330 636Q355 636 382.0 630.5Q409 625 438 612Q451 605 450 595L437 484Q437 480 431.5 480.0Q426 480 425 484Q423 517 413.0 548.5Q403 580 380.0 600.5Q357 621 314 621Q275 621 249.5 604.0Q224 587 209.5 561.5Q195 536 190 508Q182 467 196.5 437.5Q211 408 238.0 386.0Q265 364 296 342Q329 321 358.0 296.5Q387 272 403.0 238.5Q419 205 411 158Q403 111 374.0 72.5Q345 34 297.0 11.0Q249 -12 183 -12Z"/>
<path fill="#FAF7F2" transform="translate(681.925 978.000) scale(0.050000 -0.050000)" d="M62 -8Q48 -8 43.5 -6.5Q39 -5 39 -2Q39 2 44.5 25.0Q50 48 54 74L156 619Q163 655 148.0 664.0Q133 673 88 651Q84 649 81.5 655.0Q79 661 83 662L212 725Q216 727 220.0 723.0Q224 719 223 717L94 7Q92 -8 62 -8ZM317 -9Q291 -9 284.5 13.0Q278 35 288 89L317 248Q328 305 319.0 332.5Q310 360 280 360Q248 360 213.0 319.0Q178 278 146.5 199.0Q115 120 94 7L82 8Q103 125 138.0 213.0Q173 301 218.5 350.0Q264 399 313 399Q356 399 369.5 368.0Q383 337 371 267L338 89Q333 59 337.5 45.0Q342 31 355 31Q366 31 383.0 43.5Q400 56 421 77Q425 81 429.0 77.0Q433 73 429 69Q397 32 370.0 11.5Q343 -9 317 -9Z"/>
<path fill="#FAF7F2" transform="translate(707.500 978.000) scale(0.050000 -0.050000)" d="M81 -13Q48 -13 31.0 11.0Q14 35 21 91Q29 145 55.5 199.5Q82 254 120.5 299.0Q159 344 202.0 371.5Q245 399 284 399Q303 399 320.5 392.5Q338 386 351.0 370.5Q364 355 366 330L323 357Q336 359 352.5 373.5Q369 388 374 407Q376 410 381.5 409.0Q387 408 386 406L328 89Q318 31 343 31Q354 31 371.5 43.5Q389 56 409 77Q412 80 416.0 76.0Q420 72 417 69Q385 32 358.0 11.5Q331 -9 305 -9Q281 -9 274.0 13.0Q267 35 277 89L301 229L318 246Q288 170 248.0 111.5Q208 53 165.0 20.0Q122 -13 81 -13ZM117 36Q145 36 175.0 58.0Q205 80 232.5 115.5Q260 151 280.5 193.5Q301 236 309 277Q317 314 302.0 339.0Q287 364 250 364Q215 363 179.0 332.5Q143 302 115.0 251.5Q87 201 77 136Q70 86 79.5 61.0Q89 36 117 36Z"/>
<path fill="#FAF7F2" transform="translate(732.525 978.000) scale(0.050000 -0.050000)" d="M-57 -275Q-61 -276 -62.0 -270.0Q-63 -264 -59 -263Q-37 -259 -26.0 -253.0Q-15 -247 -9.0 -231.5Q-3 -216 2 -185L104 386Q104 389 111.0 395.0Q118 401 128.0 410.5Q138 420 146.0 432.0Q154 444 157 459Q159 463 164.0 462.0Q169 461 168 457L55 -178Q48 -219 59.5 -231.0Q71 -243 113 -238Q117 -236 118.5 -242.0Q120 -248 115 -249ZM145 -1Q108 -1 89.5 2.0Q71 5 57 8L67 60Q86 47 111.0 37.0Q136 27 173 27Q218 27 248.5 52.5Q279 78 298.0 121.5Q317 165 323 220Q328 254 324.0 285.5Q320 317 302.0 337.0Q284 357 243 357Q197 357 150.5 330.0Q104 303 42 256Q39 254 35.0 259.0Q31 264 35 265Q95 318 159.5 355.5Q224 393 285 393Q341 393 365.5 357.0Q390 321 380 253Q373 202 350.0 156.0Q327 110 294.5 74.5Q262 39 223.0 19.0Q184 -1 145 -1Z"/>
<path fill="#FAF7F2" transform="translate(756.200 978.000) scale(0.050000 -0.050000)" d="M155 -12Q102 -12 71.5 16.0Q41 44 31.5 89.0Q22 134 32 185Q38 222 58.5 260.5Q79 299 110.0 330.0Q141 361 179.0 380.0Q217 399 260 399Q297 399 314.5 384.5Q332 370 328 345Q323 321 300.0 299.0Q277 277 241.0 259.5Q205 242 160.5 229.0Q116 216 68 211L70 224Q147 235 199.5 259.5Q252 284 261 324Q268 351 252.0 361.5Q236 372 216 372Q182 372 157.0 351.0Q132 330 116.0 295.0Q100 260 93 218Q82 162 90.5 118.0Q99 74 125.0 48.0Q151 22 193 22Q217 22 243.0 29.0Q269 36 294 55Q297 57 300.5 53.0Q304 49 301 46Q263 15 227.0 1.5Q191 -12 155 -12Z"/>
<path fill="#FAF7F2" transform="translate(776.675 978.000) scale(0.050000 -0.050000)" d="M101 -11Q63 -11 35.0 7.0Q7 25 11 51Q13 65 22.0 72.0Q31 79 41 79Q54 79 60.5 68.5Q67 58 74.0 45.0Q81 32 94.0 21.5Q107 11 131 11Q158 11 174.5 26.0Q191 41 195 72Q199 103 186.0 125.5Q173 148 150.5 166.0Q128 184 106.5 202.5Q85 221 72.5 244.0Q60 267 66 298Q72 329 92.5 351.0Q113 373 141.5 384.5Q170 396 199 396Q235 396 259.0 381.5Q283 367 280 346Q277 332 267.5 325.5Q258 319 249 319Q235 319 227.0 327.0Q219 335 211.5 346.0Q204 357 193.5 365.5Q183 374 163 374Q144 374 129.0 364.0Q114 354 111 334Q106 304 119.5 282.0Q133 260 155.0 241.0Q177 222 199.0 202.5Q221 183 233.5 159.0Q246 135 241 103Q236 74 216.5 47.5Q197 21 167.0 5.0Q137 -11 101 -11Z"/>
<path fill="#FAF7F2" transform="translate(810.125 978.000) scale(0.050000 -0.050000)" d="M81 -13Q48 -13 31.0 11.0Q14 35 21 91Q29 145 55.5 199.5Q82 254 120.5 299.0Q159 344 202.0 371.5Q245 399 284 399Q303 399 320.5 392.5Q338 386 351.0 370.5Q364 355 366 330L323 357Q336 359 352.5 373.5Q369 388 374 407Q376 410 381.5 409.0Q387 408 386 406L328 89Q318 31 343 31Q354 31 371.5 43.5Q389 56 409 77Q412 80 416.0 76.0Q420 72 417 69Q385 32 358.0 11.5Q331 -9 305 -9Q281 -9 274.0 13.0Q267 35 277 89L301 229L318 246Q288 170 248.0 111.5Q208 53 165.0 20.0Q122 -13 81 -13ZM117 36Q145 36 175.0 58.0Q205 80 232.5 115.5Q260 151 280.5 193.5Q301 236 309 277Q317 314 302.0 339.0Q287 364 250 364Q215 363 179.0 332.5Q143 302 115.0 251.5Q87 201 77 136Q70 86 79.5 61.0Q89 36 117 36Z"/>
<path fill="#FAF7F2" transform="translate(850.175 978.000) scale(0.050000 -0.050000)" d="M13 0Q10 0 10.0 6.0Q10 12 13 12Q44 12 60.5 17.0Q77 22 85.5 37.0Q94 52 99 81L180 544Q188 587 177.5 600.0Q167 613 120 613Q118 613 118.0 619.0Q118 625 120 625Q140 625 165.0 623.5Q190 622 219 622Q242 622 274.5 625.0Q307 628 342 628Q395 628 436.0 609.5Q477 591 498.0 552.5Q519 514 507 453Q498 403 471.5 366.5Q445 330 409.0 307.0Q373 284 334.0 273.0Q295 262 261 262Q249 262 239.5 263.0Q230 264 220 267Q217 268 219.0 275.0Q221 282 224 281Q232 279 239.5 278.0Q247 277 254 277Q292 277 330.5 294.0Q369 311 398.5 345.0Q428 379 438 433Q448 491 433.5 531.0Q419 571 388.5 592.0Q358 613 321 613Q291 613 275.0 609.5Q259 606 251.0 591.0Q243 576 236 542L155 81Q148 38 159.0 25.0Q170 12 216 12Q218 12 218.0 6.0Q218 0 216 0Q196 0 169.5 1.0Q143 2 112 2Q84 2 58.0 1.0Q32 0 13 0Z"/>
<path fill="#FAF7F2" transform="translate(878.650 978.000) scale(0.050000 -0.050000)" d="M81 -13Q48 -13 31.0 11.0Q14 35 21 91Q29 145 55.5 199.5Q82 254 120.5 299.0Q159 344 202.0 371.5Q245 399 284 399Q303 399 320.5 392.5Q338 386 351.0 370.5Q364 355 366 330L323 357Q336 359 352.5 373.5Q369 388 374 407Q376 410 381.5 409.0Q387 408 386 406L328 89Q318 31 343 31Q354 31 371.5 43.5Q389 56 409 77Q412 80 416.0 76.0Q420 72 417 69Q385 32 358.0 11.5Q331 -9 305 -9Q281 -9 274.0 13.0Q267 35 277 89L301 229L318 246Q288 170 248.0 111.5Q208 53 165.0 20.0Q122 -13 81 -13ZM117 36Q145 36 175.0 58.0Q205 80 232.5 115.5Q260 151 280.5 193.5Q301 236 309 277Q317 314 302.0 339.0Q287 364 250 364Q215 363 179.0 332.5Q143 302 115.0 251.5Q87 201 77 136Q70 86 79.5 61.0Q89 36 117 36Z"/>
<path fill="#FAF7F2" transform="translate(903.675 978.000) scale(0.050000 -0.050000)" d="M121 -12Q102 -12 84.5 -4.5Q67 3 58.5 21.5Q50 40 56 73L99 306Q106 343 100.5 352.0Q95 361 65 361Q61 361 62.0 367.0Q63 373 66 373Q101 373 126.0 395.5Q151 418 159 450Q160 453 168.5 453.0Q177 453 176 450L114 104Q106 63 117.5 44.0Q129 25 160 25Q189 25 212.0 38.5Q235 52 256 70Q258 72 262.5 68.0Q267 64 264 62Q219 22 185.0 5.0Q151 -12 121 -12ZM265 342Q263 342 243.0 344.5Q223 347 196.5 349.5Q170 352 145 352L147 376Q173 376 203.0 378.0Q233 380 258.0 381.5Q283 383 290 383Q295 383 296.5 380.5Q298 378 297 374Q296 366 285.5 354.0Q275 342 265 342Z"/>
<path fill="#FAF7F2" transform="translate(921.750 978.000) scale(0.050000 -0.050000)" d="M62 -8Q48 -8 43.5 -6.5Q39 -5 39 -2Q39 2 44.5 25.0Q50 48 54 74L156 619Q163 655 148.0 664.0Q133 673 88 651Q84 649 81.5 655.0Q79 661 83 662L212 725Q216 727 220.0 723.0Q224 719 223 717L94 7Q92 -8 62 -8ZM317 -9Q291 -9 284.5 13.0Q278 35 288 89L317 248Q328 305 319.0 332.5Q310 360 280 360Q248 360 213.0 319.0Q178 278 146.5 199.0Q115 120 94 7L82 8Q103 125 138.0 213.0Q173 301 218.5 350.0Q264 399 313 399Q356 399 369.5 368.0Q383 337 371 267L338 89Q333 59 337.5 45.0Q342 31 355 31Q366 31 383.0 43.5Q400 56 421 77Q425 81 429.0 77.0Q433 73 429 69Q397 32 370.0 11.5Q343 -9 317 -9Z"/></g></svg>